<svg width="199" height="28" viewBox="0 0 199 28" xmlns="http://www.w3.org/2000/svg" xmlns:xlink="http://www.w3.org/1999/xlink">
  <title>
    Press Progress Logo
  </title>
  <defs>
    <path id="a" d="M8.722.834H0v20.703h17.4438V.834h-8.722z"/>
    <path id="c" d="M13.8986.834H.2586v20.7037h13.64V.834z"/>
    <linearGradient x1="3.1455%" y1="50%" x2="26.5015%" y2="50%" id="e">
      <stop stop-color="#FFF" stop-opacity="0" offset="0%"/>
      <stop stop-color="#FFF" offset="100%"/>
    </linearGradient>
  </defs>
  <g fill="none" fill-rule="evenodd">
    <g transform="translate(0 -.834)">
      <mask id="b" fill="#fff">
        <use xlink:href="#a"/>
      </mask>
      <path d="M8.5498 10.042c.915 0 2.545-.2 2.545-2.717 0-2.288-1.544-2.316-2.287-2.316h-.372v5.033h.114zm-8.55 11.495v-2.973l1.802-.201c.4-.057.457-.143.457-.572V4.609c0-.429-.057-.544-.457-.572l-1.802-.201V.834h10.552c5.29 0 6.892 2.802 6.892 6.091 0 5.033-3.003 7.177-7.836 7.177h-1.172v3.661c0 .457.028.543.457.572l4.089.229v2.973H-.0002z" fill="#29363B" mask="url(#b)"/>
    </g>
    <path d="M18.0626 20.7035v-3.002l1.144-.201c.4-.057.457-.143.457-.572v-7.091c0-.315-.085-.487-.371-.601l-1.459-.543.401-3.089h6.263l.428 2.631h.286c.944-1.887 2.088-2.945 4.004-2.945.8 0 2.144.172 2.659.314v6.034l-4.833-.143-.229-1.001c-.085-.314-.2-.4-.371-.4-.201 0-.515.114-.744.228v6.521c0 .457.058.572.486.572l2.974.314v2.974h-11.095zM40.5944 11.4096c.058-1.773-.515-2.03-1.144-2.03-.629 0-1.144.372-1.201 2.03h2.345zm5.862 7.978c-2.144.973-4.318 1.659-6.577 1.659-5.833 0-7.892-3.431-7.892-8.007 0-5.233 3.431-7.749 7.663-7.749 4.032 0 6.663 2.144 6.663 7.32 0 .286-.029 1.03-.085 1.745h-7.893c.114 1.63.943 2.259 2.373 2.259.658 0 2.088-.172 4.433-.887l1.315 3.66zM55.6234 9.9803l-.143-.715c-.057-.257-.143-.315-.315-.372-.342-.114-.772-.172-1.372-.172-.744 0-1.458.144-1.458.773 0 .801 1.172 1.001 2.601 1.286 2.346.458 5.434 1.087 5.434 4.862 0 3.689-2.888 5.404-7.149 5.404-2.86 0-5.09-.543-6.12-1.086v-3.661l4.204.258.172.858c.057.343.171.429.429.486.286.085.858.143 1.572.143 1.116 0 1.602-.372 1.602-1.001 0-.858-1.258-.972-2.803-1.23-2.344-.4-5.29-1.086-5.29-5.061 0-3.832 3.289-5.462 6.949-5.462 2.459 0 5.004.515 6.005.915v4.003l-4.318-.228zM69.4824 9.9803l-.143-.715c-.057-.257-.143-.315-.315-.372-.342-.114-.772-.172-1.372-.172-.744 0-1.458.144-1.458.773 0 .801 1.172 1.001 2.601 1.286 2.346.458 5.434 1.087 5.434 4.862 0 3.689-2.888 5.404-7.149 5.404-2.86 0-5.09-.543-6.12-1.086v-3.661l4.204.258.172.858c.057.343.171.429.429.486.286.085.858.143 1.572.143 1.116 0 1.602-.372 1.602-1.001 0-.858-1.258-.972-2.803-1.23-2.344-.4-5.29-1.086-5.29-5.061 0-3.832 3.289-5.462 6.949-5.462 2.459 0 5.004.515 6.005.915v4.003l-4.318-.228z" fill="#29363B"/>
    <g transform="translate(76 -.834)">
      <mask id="d" fill="#fff">
        <use xlink:href="#c"/>
      </mask>
      <path d="M5.8056 11.7577c3.002 0 5.376-.715 5.376-4.576 0-2.973-1.63-4.117-4.947-4.117h-3.375v8.693h2.946zm-2.946 9.78H.2586V.8337h6.748c5.29 0 6.892 2.917 6.892 6.206 0 4.918-2.917 6.977-7.893 6.977h-3.146v7.521z" fill="#29363B" mask="url(#d)"/>
    </g>
    <path d="M99.3194 8.407c-1.83-.257-4.004.486-5.205 1.601v10.695h-2.602V6.005h2.173l.201 2.116c1.286-1.744 2.831-2.431 4.89-2.431.171 0 .372.029.543.029v2.688zM110.4617 13.2398c0-4.06-1.43-5.404-3.975-5.404-2.602 0-4.347 1.544-4.347 5.462 0 3.889 1.373 5.661 4.233 5.661 2.545 0 4.089-1.544 4.089-5.719m-11.01.172c0-4.747 2.46-7.721 7.15-7.721 4.66 0 6.576 3.003 6.576 7.378 0 4.832-2.001 7.978-6.948 7.978-5.091 0-6.778-3.289-6.778-7.635M120.743 7.778c-2.059 0-3.718.887-3.718 3.146 0 1.915 1.058 3.145 3.66 3.145 2.145 0 3.604-1.115 3.604-3.088 0-2.202-1.344-3.203-3.546-3.203m2.145 13.24l-4.776-.286c-1.115.743-1.63 1.344-1.63 2.316 0 1.23 1.001 2.059 4.318 2.059 3.031 0 4.547-.772 4.547-2.316 0-1.059-.458-1.63-2.459-1.773m2.03-13.983c.458-1.058 1.23-1.916 2.316-1.916.457 0 .858.085 1.287.229v2.087c-.886-.057-2.059.085-2.802.314.714.83 1.086 2.002 1.086 3.203 0 3.317-2.631 5.262-6.005 5.262-.972 0-1.887-.086-2.631-.343-.4.371-.915.772-.915 1.372 0 .572.315 1.001 1.888 1.116l4.089.285c3.031.2 4.804.944 4.804 3.833 0 3.602-3.861 4.689-7.55 4.689-5.49 0-6.605-1.888-6.605-3.632 0-1.658 1.173-2.802 2.373-3.374v-.029c-1-.4-1.601-.972-1.601-2.03 0-1.258.915-2.087 1.944-2.888-1.343-.715-2.173-2.23-2.173-4.118 0-3.231 2.431-5.405 6.234-5.405 1.802 0 3.289.372 4.261 1.345M137.456 8.407c-1.83-.257-4.004.486-5.205 1.601v10.695h-2.602V6.005h2.173l.201 2.116c1.286-1.744 2.831-2.431 4.89-2.431.171 0 .372.029.543.029v2.688zM147.6535 11.896c0-2.631-1-4.089-3.317-4.089-1.945 0-3.832 1.172-3.975 4.089h7.292zm-10.065 1.487c0-5.376 3.145-7.693 6.92-7.693 4.117 0 5.834 2.717 5.834 6.349 0 .572-.029 1.229-.115 1.916h-9.895c.115 3.746 1.774 4.918 4.118 4.918 2.088 0 3.06-.943 3.461-2.602l2.287.515c-.6 2.859-2.888 4.261-5.833 4.261-5.205 0-6.777-3.632-6.777-7.664zM162.7626 9.9515l-2.345.515c-.343-1.687-.915-2.717-3.06-2.717-2.144 0-2.83.944-2.83 2.059 0 1.515 1.201 1.944 3.259 2.373 2.688.572 5.234 1.116 5.234 4.404 0 2.802-2.174 4.461-5.748 4.461-3.374 0-5.405-1.315-5.862-4.261l2.316-.629c.4 1.573 1.058 2.831 3.66 2.831 1.773 0 3.06-.543 3.06-2.116 0-1.63-1.201-1.916-3.203-2.316-2.402-.486-5.29-1.001-5.29-4.433 0-2.973 2.459-4.432 5.433-4.432 3.489 0 4.918 1.659 5.376 4.261M175.3917 9.9515l-2.345.515c-.343-1.687-.915-2.717-3.06-2.717-2.144 0-2.83.944-2.83 2.059 0 1.515 1.201 1.944 3.259 2.373 2.688.572 5.234 1.116 5.234 4.404 0 2.802-2.174 4.461-5.748 4.461-3.374 0-5.405-1.315-5.862-4.261l2.316-.629c.4 1.573 1.058 2.831 3.66 2.831 1.773 0 3.06-.543 3.06-2.116 0-1.63-1.201-1.916-3.203-2.316-2.402-.486-5.29-1.001-5.29-4.433 0-2.973 2.459-4.432 5.433-4.432 3.489 0 4.918 1.659 5.376 4.261" fill="#29363B"/>
    <path fill="url(#e)" d="M-70 0h280v125H-70z" transform="translate(0 -1)">
      <animateTransform attributeName="transform" type="translate" from="0 0" to="220 0" begin="1s" dur="0.9s" fill="freeze"/>
    </path>

    <path fill="#00ABB8" d="M177.0646.0053h10.85l10.349 10.349h-10.6">
      <animateTransform attributeName="transform" type="translate" from="-200 0" to="0 0" begin="1s" dur="0.8s"/>
    </path>
    <path fill="#0096A1" d="M177.011 20.5035h10.877l10.375-10.375h-10.626">
      <animateTransform attributeName="transform" type="translate" from="-200 0" to="0 0" begin="1s" dur="0.8s"/>
    </path>
     <rect id="Rectangle" fill="#ffffff" x="175" y="0" width="26" height="31">
       <animateTransform attributeName="transform" type="translate" from="0 0" to="200 0" begin="1s" dur="0.8s" fill="freeze" />
     </rect>


  </g>
</svg>
